<?xml version="1.0" encoding="UTF-8"?>
<!DOCTYPE svg  PUBLIC '-//W3C//DTD SVG 1.1//EN'  'http://www.w3.org/Graphics/SVG/1.1/DTD/svg11.dtd'>
<svg viewBox="0 0 113 31" fill="none" xmlns="http://www.w3.org/2000/svg">
  <mask id="mask0" mask-type="alpha" maskUnits="userSpaceOnUse" x="13" y="0" width="6" height="31">
    <path d="M13.6748 0.767578H18.2555V30.7094H13.6748V0.767578Z" fill="white"/>
  </mask>
  <g class="animation-delay-3 spin" mask="url(#mask0)">
    <path fill-rule="evenodd" clip-rule="evenodd" d="M16.8411 25.8482C16.4953 25.3893 16.3757 24.8005 16.3673 24.2369C16.3588 23.5855 16.5121 22.9004 16.9523 22.4004C17.4206 21.8433 18.057 21.3489 18.1963 20.591C18.2879 20.004 18.2935 19.3638 18.0066 18.8255C17.6636 18.0955 16.8682 17.6964 16.5785 16.9329C16.3009 16.1973 16.2925 15.3562 16.5542 14.6159C16.8692 13.7337 17.8271 13.286 18.1243 12.3934C18.2991 11.8214 18.2991 11.1859 18.1215 10.6148C17.8234 9.72228 16.8495 9.28395 16.5495 8.39139C16.2719 7.5792 16.2635 6.58757 16.8131 5.88287C17.0832 5.52959 17.4327 5.24546 17.6972 4.88751C18.2318 4.2286 18.3374 3.31361 18.1907 2.50143C17.9253 1.34624 16.6645 0.547141 15.5055 0.821918C14.8448 0.948092 14.2718 1.40605 13.9457 1.98739C13.4784 2.86593 13.6242 4.04822 14.3317 4.7604C14.7177 5.16602 15.1224 5.57538 15.3597 6.08942C15.6205 6.63991 15.5401 7.26704 15.5298 7.85679C15.4513 8.69701 14.8008 9.28862 14.2718 9.87743C13.6298 10.5597 13.5354 11.6139 13.8457 12.4691C14.1606 13.2551 14.9607 13.7 15.3168 14.4617C15.6065 14.9842 15.5439 15.5982 15.5383 16.1711C15.5317 16.6796 15.2859 17.1506 14.9756 17.5404C14.6251 18.0049 14.127 18.36 13.8877 18.9049C13.5952 19.5844 13.6083 20.3844 13.9017 21.0611C14.241 21.7602 14.9541 22.1835 15.3018 22.878C15.6233 23.4761 15.5523 24.1808 15.5214 24.8341C15.4186 25.6594 14.7663 26.2342 14.2457 26.8202C13.4513 27.6978 13.4877 29.2128 14.356 30.0306C14.8214 30.5035 15.4999 30.7605 16.1626 30.7016C16.8262 30.6446 17.4411 30.2708 17.8383 29.7446C18.2954 29.1053 18.3552 28.2464 18.1141 27.5146C17.8804 26.8314 17.2467 26.4174 16.8411 25.8482Z" fill="#24BEE1"/>
  </g>
  <path class="animation-delay-5 spin" fill-rule="evenodd" clip-rule="evenodd" d="M13.22 22.6786C12.8051 22.1879 12.2649 21.7757 12.0247 21.157C11.7293 20.3943 11.7293 19.5111 12.0349 18.7522C12.249 18.2139 12.7116 17.8456 13.0789 17.4204C13.4014 17.0493 13.6444 16.5867 13.664 16.0876C13.6864 15.596 13.6939 15.0782 13.4621 14.6296C13.1481 13.9333 12.4209 13.5455 12.0976 12.8548C11.749 12.1351 11.7256 11.2781 11.9508 10.5173C12.1172 9.95934 12.5228 9.52287 12.9303 9.12566C13.4042 8.66209 13.7182 8.0172 13.6733 7.34428C13.7275 6.57415 13.3359 5.79842 12.678 5.39093C12.1817 5.01802 11.5321 4.94418 10.9349 5.04699C10.3171 5.18812 9.74046 5.57224 9.42923 6.13302C9.08249 6.69659 9.08716 7.40129 9.2124 8.03029C9.44231 8.9593 10.4003 9.41539 10.7723 10.2659C11.119 11.0846 11.1078 12.0548 10.7181 12.8567C10.3629 13.5754 9.6012 13.9997 9.29838 14.7521C9.10679 15.1708 9.13763 15.6428 9.14978 16.0914C9.16567 16.526 9.35633 16.9372 9.62269 17.2755C10.0031 17.7438 10.4947 18.1316 10.7555 18.6887C11.1293 19.4952 11.1059 20.4672 10.7368 21.271C10.3629 22.0954 9.42082 22.5421 9.20959 23.4571C9.09183 24.0674 9.08342 24.7478 9.4068 25.3011C9.81149 25.9983 10.5854 26.4946 11.4041 26.4759C12.4537 26.5049 13.4471 25.6918 13.6416 24.6627C13.7322 23.9823 13.6687 23.2309 13.22 22.6786ZM21.0606 20.9535C20.8644 20.2414 20.8653 19.4525 21.1429 18.76C21.4522 18.0132 22.213 17.5917 22.5644 16.873C22.899 16.1954 22.9102 15.3664 22.6009 14.6785C22.2598 13.8962 21.4195 13.4616 21.1205 12.6551C20.8616 11.9476 20.856 11.1419 21.0962 10.4269C21.3223 9.7484 21.942 9.33249 22.3457 8.77079C22.8261 8.12123 22.9626 7.22867 22.6626 6.47256C22.2934 5.42859 21.0962 4.79492 20.0213 5.05568C19.2054 5.2398 18.5045 5.90338 18.3119 6.72117C18.1858 7.19969 18.2166 7.7156 18.382 8.18011C18.7241 9.12127 19.7578 9.61007 20.0204 10.5952C20.1924 11.2915 20.1933 12.0625 19.912 12.7317C19.5709 13.4925 18.782 13.9346 18.4353 14.6907C18.1895 15.2907 18.1708 15.9842 18.368 16.601C18.6858 17.53 19.6924 18.0057 19.9877 18.9478C20.1933 19.6133 20.1896 20.3563 19.9765 21.0199C19.6868 21.9022 18.7559 22.3508 18.4185 23.205C18.1446 23.8873 18.1689 24.7004 18.5446 25.3406C18.8334 25.8079 19.2783 26.1865 19.8026 26.3612C20.4672 26.5846 21.2392 26.4883 21.8139 26.078C22.3775 25.707 22.7271 25.0649 22.8121 24.4041C22.8757 23.7078 22.6467 22.9854 22.1663 22.4732C21.7448 22.0106 21.242 21.5779 21.0606 20.9535Z" fill="#24BEE1"/>
  <path class="animation-delay-4 spin" fill-rule="evenodd" clip-rule="evenodd" d="M25.5224 16.2586C25.514 15.6735 25.443 15.0529 25.715 14.5108C26.0645 13.6977 26.9375 13.2538 27.2375 12.4117C27.5524 11.5378 27.3618 10.4677 26.6459 9.84429C26.1 9.29193 25.2589 9.14613 24.5196 9.29941C23.8934 9.4639 23.3373 9.89289 23.0448 10.4761C22.7709 10.9789 22.7691 11.578 22.856 12.1313C23.0008 12.8575 23.5831 13.3575 24.0551 13.8818C24.7645 14.6679 24.8364 15.8548 24.5233 16.8259C24.2402 17.6652 23.3719 18.097 23.0205 18.8923C22.7915 19.3335 22.7812 19.8456 22.8298 20.3288C22.9719 21.1672 23.6046 21.9196 24.4299 22.1523C25.071 22.3355 25.7982 22.2448 26.3552 21.871C26.8515 21.5336 27.2291 21.0055 27.3319 20.4092C27.5085 19.6279 27.2468 18.7755 26.6832 18.2091C26.1552 17.6661 25.5757 17.0567 25.5224 16.2586Z" fill="#24BEE1"/>
  <path class="animation-delay-2 spin" fill-rule="evenodd" clip-rule="evenodd" d="M31.8796 15.7002C31.6095 14.4553 30.1646 13.6188 28.9543 14.0525C28.0552 14.331 27.3411 15.2123 27.3869 16.1722C27.2953 17.2779 28.1804 18.3013 29.2543 18.4816C30.2104 18.6527 31.26 18.1461 31.6852 17.2648C31.9506 16.7909 31.9628 16.2245 31.8796 15.7002ZM8.92671 18.9139C8.67437 18.2756 8.04911 17.9101 7.69115 17.3437C7.15468 16.5222 7.11636 15.4296 7.47245 14.5315C7.79582 13.7184 8.6725 13.2912 8.96784 12.466C9.13139 11.994 9.2071 11.4734 9.06504 10.9855C8.89026 10.1313 8.15565 9.44435 7.31076 9.27332C6.8827 9.22846 6.43409 9.21444 6.03033 9.38828C5.09384 9.69483 4.4826 10.707 4.56859 11.6772C4.54429 12.4931 5.09104 13.1595 5.64153 13.6978C5.97612 14.0044 6.16866 14.4175 6.36212 14.8193C6.46306 15.5044 6.50886 16.2203 6.26586 16.883C5.91818 17.7325 5.02468 18.1933 4.70317 19.0541C4.53681 19.4541 4.5555 19.8999 4.58448 20.3233C4.70317 21.1504 5.33498 21.8579 6.11538 22.1337C6.51166 22.2439 6.93317 22.2841 7.33973 22.1972C8.19023 22.0187 8.9211 21.3084 9.07812 20.4457C9.2099 19.9364 9.11737 19.3962 8.92671 18.9139Z" fill="#24BEE1"/>
  <path class="animation-delay-1 spin" fill-rule="evenodd" clip-rule="evenodd" d="M4.57431 16.1702C4.58272 15.2449 3.92475 14.3916 3.06958 14.0776C2.58451 13.8944 2.05645 13.9103 1.56297 14.0477C1.09473 14.2533 0.632092 14.5402 0.369465 14.9917C0.0601062 15.5225 -0.110929 16.174 0.0806678 16.7759C0.237684 17.5039 0.790977 18.0974 1.47792 18.3619C2.35366 18.7273 3.42006 18.417 4.02849 17.7086C4.38926 17.2862 4.60796 16.7301 4.57431 16.1702Z" fill="#24BEE1"/>
  <path fill-rule="evenodd" clip-rule="evenodd" d="M48.3915 16.6633C48.9055 16.6633 49.3728 16.5652 49.7934 16.368C50.2131 16.1708 50.5682 15.9044 50.8598 15.5708C51.1514 15.2371 51.3785 14.8511 51.5411 14.4137C51.7038 13.9763 51.786 13.5099 51.786 13.0127C51.786 12.5155 51.7038 12.0482 51.5411 11.6108C51.3785 11.1734 51.1514 10.7883 50.8598 10.4528C50.5682 10.1192 50.2131 9.85372 49.7934 9.65652C49.3728 9.45932 48.9055 9.36118 48.3915 9.36118H44.8941V16.6633H48.3915ZM41.937 6.71248H48.3915C49.3513 6.71248 50.2215 6.87884 51.0009 7.21437C51.7813 7.54802 52.4496 8.00692 53.0066 8.58919C53.5637 9.17239 53.9926 9.84531 54.2927 10.608C54.5927 11.3706 54.7422 12.1725 54.7422 13.0127C54.7422 13.8698 54.5927 14.6754 54.2927 15.4297C53.9926 16.1839 53.5637 16.8521 53.0066 17.4344C52.4496 18.0176 51.7813 18.4756 51.0009 18.8111C50.2215 19.1448 49.3513 19.3121 48.3915 19.3121H44.8941V24.7113H41.937V6.71248ZM61.7628 22.5266C62.2936 22.5266 62.7787 22.4238 63.2161 22.2182C63.6526 22.0116 64.0255 21.7378 64.3339 21.3948C64.6433 21.0518 64.8825 20.6489 65.0545 20.1863C65.2255 19.7237 65.3115 19.2349 65.3115 18.7208C65.3115 18.2068 65.2255 17.717 65.0545 17.2544C64.8825 16.7918 64.6433 16.3899 64.3339 16.0459C64.0255 15.7039 63.6526 15.4291 63.2161 15.2244C62.7787 15.0179 62.2936 14.9141 61.7628 14.9141C61.231 14.9141 60.7506 15.0179 60.3225 15.2244C59.8935 15.4291 59.5253 15.7039 59.2169 16.0459C58.9085 16.3899 58.6729 16.7918 58.5103 17.2544C58.3468 17.717 58.2654 18.2068 58.2654 18.7208C58.2654 19.2349 58.3468 19.7237 58.5103 20.1863C58.6729 20.6489 58.9085 21.0518 59.2169 21.3948C59.5253 21.7378 59.8935 22.0116 60.3225 22.2182C60.7506 22.4238 61.231 22.5266 61.7628 22.5266ZM68.1135 12.7299V24.7117H65.3115V23.0911C64.9339 23.692 64.3984 24.1631 63.704 24.5061C63.0096 24.8482 62.3114 25.0201 61.6086 25.0201C60.7001 25.0201 59.8683 24.8528 59.115 24.5192C58.3598 24.1846 57.7131 23.7257 57.1729 23.1434C56.6327 22.5612 56.213 21.892 55.913 21.1377C55.613 20.3835 55.4625 19.5779 55.4625 18.7208C55.4625 17.8806 55.613 17.0796 55.913 16.316C56.213 15.5534 56.6327 14.8805 57.1729 14.2973C57.7131 13.715 58.3598 13.2561 59.115 12.9224C59.8683 12.5879 60.7001 12.4206 61.6086 12.4206C62.3114 12.4206 63.0096 12.5925 63.704 12.9346C64.3984 13.2776 64.9339 13.7496 65.3115 14.3496V12.7299H68.1135ZM77.7051 22.5266C78.236 22.5266 78.7164 22.4238 79.1454 22.2182C79.5734 22.0116 79.9426 21.7378 80.251 21.3948C80.5594 21.0518 80.795 20.6489 80.9576 20.1863C81.1202 19.7237 81.2025 19.2349 81.2025 18.7208C81.2025 18.2068 81.1202 17.717 80.9576 17.2544C80.795 16.7918 80.5594 16.3899 80.251 16.0459C79.9426 15.7039 79.5734 15.4291 79.1454 15.2244C78.7164 15.0179 78.236 14.9141 77.7051 14.9141C77.1565 14.9141 76.664 15.0179 76.2266 15.2244C75.7892 15.4291 75.4162 15.7039 75.1078 16.0459C74.7994 16.3899 74.5639 16.7918 74.4003 17.2544C74.2377 17.717 74.1564 18.2068 74.1564 18.7208C74.1564 19.2349 74.2377 19.7237 74.4003 20.1863C74.5639 20.6489 74.7994 21.0518 75.1078 21.3948C75.4162 21.7378 75.7892 22.0116 76.2266 22.2182C76.664 22.4238 77.1565 22.5266 77.7051 22.5266ZM74.1564 24.7117H71.3544V6.71191H74.1564V14.3496C74.533 13.7496 75.0695 13.2776 75.7639 12.9346C76.4583 12.5925 77.1565 12.4206 77.8593 12.4206C78.7678 12.4206 79.5986 12.5879 80.3529 12.9224C81.1081 13.2561 81.7548 13.715 82.295 14.2973C82.8352 14.8805 83.2549 15.5534 83.5549 16.316C83.8549 17.0796 84.0044 17.8806 84.0044 18.7208C84.0044 19.5779 83.8549 20.3835 83.5549 21.1377C83.2549 21.892 82.8352 22.5612 82.295 23.1434C81.7548 23.7257 81.1081 24.1846 80.3529 24.5192C79.5986 24.8528 78.7678 25.0201 77.8593 25.0201C77.1565 25.0201 76.4583 24.8482 75.7639 24.5061C75.0695 24.1631 74.533 23.692 74.1564 23.0911V24.7117ZM92.3103 22.5266C92.8412 22.5266 93.3262 22.4238 93.7627 22.2182C94.2001 22.0116 94.573 21.7378 94.8814 21.3948C95.1908 21.0518 95.43 20.6489 95.6011 20.1863C95.7731 19.7237 95.859 19.2349 95.859 18.7208C95.859 18.2068 95.7731 17.717 95.6011 17.2544C95.43 16.7918 95.1908 16.3899 94.8814 16.0459C94.573 15.7039 94.2001 15.4291 93.7627 15.2244C93.3262 15.0179 92.8412 14.9141 92.3103 14.9141C91.7785 14.9141 91.2981 15.0179 90.87 15.2244C90.4411 15.4291 90.0728 15.7039 89.7644 16.0459C89.456 16.3899 89.2204 16.7918 89.0578 17.2544C88.8943 17.717 88.813 18.2068 88.813 18.7208C88.813 19.2349 88.8943 19.7237 89.0578 20.1863C89.2204 20.6489 89.456 21.0518 89.7644 21.3948C90.0728 21.7378 90.4411 22.0116 90.87 22.2182C91.2981 22.4238 91.7785 22.5266 92.3103 22.5266ZM98.661 12.7299V24.7117H95.859V23.0911C95.4815 23.692 94.9459 24.1631 94.2515 24.5061C93.5571 24.8482 92.8589 25.0201 92.1561 25.0201C91.2467 25.0201 90.4158 24.8528 89.6616 24.5192C88.9073 24.1846 88.2606 23.7257 87.7204 23.1434C87.1802 22.5612 86.7605 21.892 86.4605 21.1377C86.1605 20.3835 86.01 19.5779 86.01 18.7208C86.01 17.8806 86.1605 17.0796 86.4605 16.316C86.7605 15.5534 87.1802 14.8805 87.7204 14.2973C88.2606 13.715 88.9073 13.2561 89.6616 12.9224C90.4158 12.5879 91.2467 12.4206 92.1561 12.4206C92.8589 12.4206 93.5571 12.5925 94.2515 12.9346C94.9459 13.2776 95.4815 13.7496 95.859 14.3496V12.7299H98.661ZM112.778 12.7295V24.7113H109.975V23.0402C109.598 23.6917 109.076 24.1852 108.407 24.5188C107.739 24.8534 106.958 25.0198 106.066 25.0198C105.193 25.0198 104.46 24.874 103.868 24.5833C103.277 24.2917 102.809 23.8973 102.467 23.4001C102.176 22.9543 101.974 22.458 101.863 21.9084C101.751 21.3607 101.696 20.6747 101.696 19.8523V12.7295H104.498V18.9261C104.498 19.441 104.541 19.9205 104.627 20.3663C104.713 20.8121 104.854 21.1934 105.051 21.5112C105.248 21.828 105.514 22.0804 105.848 22.2692C106.182 22.458 106.598 22.5524 107.095 22.5524C108.072 22.5524 108.796 22.2047 109.268 21.5112C109.74 20.8159 109.975 19.9541 109.975 18.9261V12.7295H112.778Z" fill="#414748"/>
</svg>
