<svg width="16" height="16" viewBox="0 0 16 16" fill="none" xmlns="http://www.w3.org/2000/svg">
<path d="M8 16C12.4183 16 16 12.4183 16 8C16 3.58172 12.4183 0 8 0C3.58172 0 0 3.58172 0 8C0 12.4183 3.58172 16 8 16Z" fill="#F0F0F0"/>
<path d="M4.52344 10.7826L5.21909 15.5025C6.08572 15.8241 7.02313 16 8.00169 16C11.4414 16 14.3738 13.829 15.5041 10.7826H4.52344Z" fill="black"/>
<path d="M4.52344 5.21741L5.21909 0.497531C6.08572 0.175937 7.02313 0 8.00169 0C11.4414 0 14.3738 2.171 15.5041 5.21741H4.52344Z" fill="#6DA544"/>
<path d="M0 8.00003C0 11.4397 2.17103 14.3721 5.21741 15.5024V0.49762C2.17103 1.62796 0 4.56031 0 8.00003Z" fill="#A2001D"/>
</svg>
