<svg width="16" height="16" viewBox="0 0 16 16" fill="none" xmlns="http://www.w3.org/2000/svg">
<path d="M16 8C16 7.02144 15.824 6.08403 15.5024 5.21741L8 4.86957L0.497594 5.21738C0.176031 6.08403 0 7.02144 0 8C0 8.97856 0.176031 9.91596 0.497594 10.7826L8 11.1304L15.5024 10.7826C15.824 9.91596 16 8.97856 16 8Z" fill="#496E2D"/>
<path d="M8.00241 16C11.4421 16 14.3745 13.829 15.5048 10.7826H0.5C1.63034 13.829 4.56269 16 8.00241 16Z" fill="#D80027"/>
<path d="M0.5 5.21741H15.5048C14.3745 2.171 11.4421 0 8.00241 0C4.56269 0 1.63034 2.171 0.5 5.21741Z" fill="#F0F0F0"/>
</svg>
