<svg width="16" height="16" viewBox="0 0 16 16" fill="none" xmlns="http://www.w3.org/2000/svg">
<g clip-path="url(#clip0)">
<path d="M8 16C12.4183 16 16 12.4183 16 8C16 3.58172 12.4183 0 8 0C3.58172 0 0 3.58172 0 8C0 12.4183 3.58172 16 8 16Z" fill="#F0F0F0"/>
<path d="M7.30496 8C7.30496 8 2.34844 13.658 2.34375 13.6568C3.79143 15.1046 5.79146 16 8.00061 16C12.4189 16 16.0006 12.4183 16.0006 8H7.30496Z" fill="#D80027"/>
<path d="M2.34314 2.34314C-0.781047 5.46733 -0.781047 10.5327 2.34314 13.6569C3.63417 12.3659 4.87583 11.1242 8.00002 8.00001L2.34314 2.34314Z" fill="#0052B4"/>
</g>
<defs>
<clipPath id="clip0">
<rect width="16" height="16" fill="white"/>
</clipPath>
</defs>
</svg>
