<svg width="16" height="16" viewBox="0 0 16 16" fill="none" xmlns="http://www.w3.org/2000/svg">
<path d="M8 16C12.4183 16 16 12.4183 16 8C16 3.58172 12.4183 0 8 0C3.58172 0 0 3.58172 0 8C0 12.4183 3.58172 16 8 16Z" fill="#F0F0F0"/>
<path d="M6.26175 6.95653H15.9331C15.4218 3.03131 12.0654 0 8.00084 0C7.4035 0 6.82172 0.0660313 6.26172 0.190156V6.95653H6.26175Z" fill="#D80027"/>
<path d="M4.17259 6.95648V0.972702C1.97594 2.17126 0.403375 4.36973 0.0664062 6.95651H4.17259V6.95648Z" fill="#D80027"/>
<path d="M4.17256 9.04347H0.0664062C0.403375 11.6303 1.97594 13.8287 4.17259 15.0273L4.17256 9.04347Z" fill="#D80027"/>
<path d="M6.26172 9.0435V15.8098C6.82172 15.934 7.4035 16 8.00084 16C12.0654 16 15.4218 12.9687 15.9331 9.04347H6.26172V9.0435Z" fill="#D80027"/>
</svg>
