<svg width="16" height="16" viewBox="0 0 16 16" fill="none" xmlns="http://www.w3.org/2000/svg">
<path d="M8 16C12.4183 16 16 12.4183 16 8C16 3.58172 12.4183 0 8 0C3.58172 0 0 3.58172 0 8C0 12.4183 3.58172 16 8 16Z" fill="#F0F0F0"/>
<path d="M1.65159 3.12946C1.02319 3.94705 0.549344 4.88939 0.273438 5.91311H4.43525L1.65159 3.12946Z" fill="#0052B4"/>
<path d="M15.7203 5.91312C15.4444 4.88943 14.9706 3.94708 14.3422 3.12949L11.5586 5.91312H15.7203Z" fill="#0052B4"/>
<path d="M0.273438 10.087C0.549375 11.1107 1.02322 12.053 1.65159 12.8706L4.43516 10.087H0.273438Z" fill="#0052B4"/>
<path d="M12.8657 1.65379C12.0481 1.02539 11.1057 0.551542 10.082 0.275604V4.43739L12.8657 1.65379Z" fill="#0052B4"/>
<path d="M3.125 14.3462C3.94259 14.9746 4.88494 15.4485 5.90863 15.7244V11.5627L3.125 14.3462Z" fill="#0052B4"/>
<path d="M5.90859 0.275604C4.88491 0.551542 3.94256 1.02539 3.125 1.65376L5.90859 4.43735V0.275604Z" fill="#0052B4"/>
<path d="M10.0859 15.7244C11.1096 15.4485 12.052 14.9746 12.8695 14.3462L10.0859 11.5627V15.7244Z" fill="#0052B4"/>
<path d="M11.5586 10.087L14.3422 12.8706C14.9706 12.0531 15.4444 11.1107 15.7203 10.087H11.5586Z" fill="#0052B4"/>
<path d="M15.9323 6.95653H9.04353H9.0435V0.0677188C8.70191 0.02325 8.35366 0 8 0C7.64628 0 7.29809 0.02325 6.95653 0.0677188V6.95647V6.9565H0.0677188C0.02325 7.29809 0 7.64634 0 8C0 8.35372 0.02325 8.70191 0.0677188 9.04347H6.95647H6.9565V15.9323C7.29809 15.9768 7.64628 16 8 16C8.35366 16 8.70191 15.9768 9.04347 15.9323V9.04353V9.0435H15.9323C15.9768 8.70191 16 8.35372 16 8C16 7.64634 15.9768 7.29809 15.9323 6.95653Z" fill="#D80027"/>
<path d="M10.0898 10.087L13.6597 13.6569C13.8239 13.4928 13.9805 13.3212 14.13 13.1433L11.0737 10.087H10.0898V10.087Z" fill="#D80027"/>
<path d="M5.91365 10.087H5.91359L2.34375 13.6568C2.50787 13.821 2.67947 13.9777 2.85734 14.1271L5.91365 11.0707V10.087Z" fill="#D80027"/>
<path d="M5.91122 5.91308V5.91302L2.34134 2.34311C2.17716 2.50723 2.02053 2.67883 1.87109 2.8567L4.92744 5.91305H5.91122V5.91308Z" fill="#D80027"/>
<path d="M10.0898 5.91311L13.6597 2.34317C13.4956 2.17899 13.324 2.02236 13.1462 1.87296L10.0898 4.9293V5.91311Z" fill="#D80027"/>
</svg>
