<svg width="16" height="16" viewBox="0 0 16 16" fill="none" xmlns="http://www.w3.org/2000/svg">
<path d="M0.497594 5.21742C0.176031 6.08411 0 7.02145 0 8.00002C0 8.97858 0.176031 9.91599 0.497594 10.7826L8 11.4783L15.5024 10.7826C15.824 9.91599 16 8.97858 16 8.00002C16 7.02145 15.824 6.08411 15.5024 5.21742L8 4.52176L0.497594 5.21742Z" fill="#F0F0F0"/>
<path d="M7.99847 0C4.55878 0 1.62641 2.171 0.496094 5.21741H15.5009C14.3705 2.171 11.4382 0 7.99847 0Z" fill="#D80027"/>
<path d="M7.99847 16C11.4382 16 14.3705 13.829 15.5009 10.7826H0.496094C1.62641 13.829 4.55878 16 7.99847 16Z" fill="#6DA544"/>
</svg>
