<svg width="16" height="16" viewBox="0 0 16 16" fill="none" xmlns="http://www.w3.org/2000/svg">
<path d="M8 16C12.4183 16 16 12.4183 16 8C16 3.58172 12.4183 0 8 0C3.58172 0 0 3.58172 0 8C0 12.4183 3.58172 16 8 16Z" fill="#F0F0F0"/>
<path d="M0.273438 10.087C0.736313 11.8044 1.75647 13.293 3.12828 14.347V10.087H0.273438Z" fill="#D80027"/>
<path d="M7.30078 15.9696C7.53009 15.9893 7.762 16 7.99644 16C11.6927 16 14.8028 13.4931 15.7208 10.087H7.30078V15.9696Z" fill="#D80027"/>
<path d="M15.7208 5.91303C14.8028 2.50691 11.6927 0 7.99644 0C7.762 0 7.53009 0.0106875 7.30078 0.0304375V5.91303H15.7208Z" fill="#D80027"/>
<path d="M3.12828 1.65298C1.75647 2.70704 0.736313 4.19557 0.273438 5.91304H3.12828V1.65298Z" fill="#D80027"/>
<path d="M15.9323 6.95654H6.26091H6.26088V0.190163C5.52156 0.3541 4.82066 0.619819 4.17391 0.972725V6.95647V6.95651H0.0677188C0.0231875 7.2981 0 7.64635 0 8.00001C0 8.35366 0.0231875 8.70191 0.0677188 9.04348H4.17387H4.17391V15.0273C4.82066 15.3801 5.52156 15.6459 6.26088 15.8098V9.04357V9.04351H15.9323C15.9768 8.70191 16 8.35366 16 8.00001C16 7.64635 15.9768 7.2981 15.9323 6.95654Z" fill="#0052B4"/>
</svg>
