<svg width="16" height="16" viewBox="0 0 16 16" fill="none" xmlns="http://www.w3.org/2000/svg">
<g clip-path="url(#clip0)">
<path d="M10.7843 0.497562C9.91761 0.176031 8.98026 4.15929e-09 8.00169 4.15929e-09C7.02313 -3.12458e-05 6.08575 0.176031 5.2191 0.497562L4.52344 7.99997L5.2191 15.5024C6.08572 15.824 7.0231 16 8.00169 16C8.98023 16 9.91764 15.824 10.7843 15.5024L11.4799 8L10.7843 0.497562Z" fill="#FFDA44"/>
<path d="M15.9987 8C15.9987 4.56031 13.8277 1.6279 10.7812 0.497589V15.5025C13.8277 14.372 15.9986 11.4397 15.9987 8Z" fill="#D80027"/>
<path d="M0 7.99996C0 11.4397 2.171 14.372 5.21734 15.5024L5.21737 0.497612C2.171 1.62792 0 4.56024 0 7.99996Z" fill="#0052B4"/>
</g>
<defs>
<clipPath id="clip0">
<rect width="16" height="16" fill="white"/>
</clipPath>
</defs>
</svg>
