<svg width="16" height="16" viewBox="0 0 16 16" fill="none" xmlns="http://www.w3.org/2000/svg">
<path d="M0 8.00002C0 8.97858 0.176031 9.91596 0.497594 10.7826L8 11.4783L15.5024 10.7826C15.824 9.91596 16 8.97858 16 8.00002C16 7.02145 15.824 6.08407 15.5024 5.21742L8 4.52176L0.497594 5.21742C0.176031 6.08407 0 7.02145 0 8.00002Z" fill="#FFDA44"/>
<path d="M15.5048 5.21741C14.3745 2.17103 11.4421 0 8.00241 0C4.56269 0 1.63034 2.17103 0.5 5.21741H15.5048Z" fill="#D80027"/>
<path d="M0.5 10.7826C1.63034 13.829 4.56269 16 8.00241 16C11.4421 16 14.3745 13.829 15.5048 10.7826H0.5Z" fill="#D80027"/>
</svg>
