<svg width="16" height="10" viewBox="0 0 16 10" fill="none" xmlns="http://www.w3.org/2000/svg">
<path d="M15.3931 9.75195L8.50637 0.257812C8.25637 -0.0859375 7.74465 -0.0859375 7.49661 0.257812L0.607934 9.75195C0.590982 9.7753 0.580826 9.80289 0.578594 9.83166C0.576361 9.86043 0.582138 9.88925 0.595284 9.91494C0.608431 9.94063 0.628433 9.96217 0.653074 9.97718C0.677715 9.9922 0.706033 10.0001 0.734887 10H2.19973C2.29934 10 2.39309 9.95117 2.45168 9.87109L8.00051 2.22266L13.5493 9.87109C13.6079 9.95117 13.7017 10 13.8013 10H15.2661C15.3931 10 15.4673 9.85547 15.3931 9.75195Z" fill="#9292A3"/>
</svg>
